<svg id="Layer_1" data-name="Layer 1" xmlns="http://www.w3.org/2000/svg" viewBox="0 0 504.99 357.56"><defs><style>.cls-1,.cls-14,.cls-15,.cls-16,.cls-17,.cls-2{fill:none;}.cls-1{stroke:#00b398;}.cls-1,.cls-13,.cls-14,.cls-15,.cls-16,.cls-17,.cls-2{stroke-miterlimit:10;}.cls-1,.cls-2{stroke-width:2px;}.cls-2{stroke:#bc442f;}.cls-3{font-size:12px;fill:#444;font-family:Futura-Medium, Futura;}.cls-4{letter-spacing:-0.08em;}.cls-5{letter-spacing:-0.06em;}.cls-6{letter-spacing:-0.08em;}.cls-7{letter-spacing:-0.08em;}.cls-8{letter-spacing:-0.09em;}.cls-9{letter-spacing:-0.14em;}.cls-10{letter-spacing:-0.09em;}.cls-11{letter-spacing:-0.08em;}.cls-12{letter-spacing:-0.07em;}.cls-13{fill:#fff;}.cls-13,.cls-14,.cls-15,.cls-16,.cls-17{stroke:#444;}.cls-15{stroke-width:1.07px;}.cls-16{stroke-width:0.5px;}.cls-17{stroke-width:1.28px;}.cls-18{letter-spacing:-0.03em;}.cls-19{letter-spacing:-0.04em;}.cls-20{letter-spacing:0em;}.cls-21{letter-spacing:-0.02em;}.cls-22{letter-spacing:-0.01em;}</style></defs><title>chart</title><line class="cls-1" x1="196.82" y1="82.97" x2="437.57" y2="207.99"/><line class="cls-2" x1="196.82" y1="61.43" x2="437.12" y2="41.23"/><g id="scale"><text class="cls-3" transform="translate(34.81 41.23)">20.00</text><text class="cls-3" transform="translate(36.52 10.57)"><tspan class="cls-4">2</tspan><tspan class="cls-5" x="6.4" y="0">1</tspan><tspan x="13.1" y="0">.00</tspan></text><text class="cls-3" transform="translate(35.78 71.88)"><tspan class="cls-6">1</tspan><tspan x="6.43" y="0">9.00</tspan></text><text class="cls-3" transform="translate(35.71 102.52)"><tspan class="cls-7">1</tspan><tspan x="6.5" y="0">8.00</tspan></text><text class="cls-3" transform="translate(37.61 133.17)"><tspan class="cls-8">1</tspan><tspan class="cls-9" x="6.29" y="0">7</tspan><tspan x="12.01" y="0">.00</tspan></text><text class="cls-3" transform="translate(35.86 163.81)"><tspan class="cls-10">1</tspan><tspan x="6.35" y="0">6.00</tspan></text><text class="cls-3" transform="translate(35.76 194.45)"><tspan class="cls-11">1</tspan><tspan x="6.46" y="0">5.00</tspan></text><text class="cls-3" transform="translate(35.76 225.1)"><tspan class="cls-11">1</tspan><tspan x="6.46" y="0">4.00</tspan></text><text class="cls-3" transform="translate(35.67 255.74)"><tspan class="cls-12">1</tspan><tspan x="6.54" y="0">3.00</tspan></text><text class="cls-3" transform="translate(35.76 286.39)"><tspan class="cls-11">1</tspan><tspan x="6.46" y="0">2.00</tspan></text></g><g id="Axis"><line class="cls-13" x1="76.5" y1="6.65" x2="76.5" y2="357.03"/><line class="cls-13" x1="504.45" y1="332.26" x2="0.5" y2="332.26"/><line class="cls-13" x1="290.48" y1="282.73" x2="290.48" y2="357.03"/><line class="cls-14" x1="491.4" y1="282.73" x2="76.5" y2="282.73"/><polyline class="cls-15" points="484.74 357.03 491.4 357.03 504.45 357.03 504.45 282.73 491.4 282.73"/><line class="cls-14" x1="44.74" y1="357.03" x2="484.74" y2="357.03"/><polyline class="cls-14" points="504.45 307.5 28.74 307.5 0.5 307.5 0.5 357.03 44.74 357.03"/><line class="cls-1" x1="7.24" y1="319.35" x2="22.38" y2="319.35"/><line class="cls-2" x1="7.24" y1="345.69" x2="22.38" y2="345.69"/></g><line class="cls-14" x1="196.82" y1="22.19" x2="196.82" y2="146.96"/><line class="cls-14" x1="437.12" y1="30.52" x2="437.12" y2="51.95"/><line class="cls-14" x1="437.57" y1="30.52" x2="437.57" y2="51.95"/><line class="cls-16" x1="440.17" y1="30.52" x2="434.97" y2="30.52"/><line class="cls-16" x1="440.17" y1="51.95" x2="434.97" y2="51.95"/><line class="cls-16" x1="199.42" y1="72.69" x2="194.22" y2="72.69"/><line class="cls-16" x1="199.42" y1="52.28" x2="194.22" y2="52.28"/><line class="cls-16" x1="199.42" y1="22.19" x2="194.22" y2="22.19"/><line class="cls-16" x1="199.42" y1="146.96" x2="194.22" y2="146.96"/><line class="cls-17" x1="437.57" y1="145.96" x2="437.57" y2="270.03"/><line class="cls-16" x1="440.17" y1="270.03" x2="434.97" y2="270.03"/><line class="cls-16" x1="440.17" y1="145.96" x2="434.97" y2="145.96"/><text class="cls-3" transform="translate(159.25 299.05)">Baseline</text><text class="cls-3" transform="translate(380.96 299.05)"><tspan class="cls-18">P</tspan><tspan x="6.13" y="0">ost-course</tspan></text><text class="cls-3" transform="translate(394.56 324.35)"><tspan class="cls-11">1</tspan><tspan x="6.46" y="0">4.43</tspan></text><text class="cls-3" transform="translate(394.79 349.03)"><tspan class="cls-6">1</tspan><tspan x="6.43" y="0">9.</tspan><tspan class="cls-19" x="17.54" y="0">8</tspan><tspan x="24.52" y="0">7</tspan></text><text class="cls-3" transform="translate(165.54 324.35)"><tspan class="cls-7">1</tspan><tspan x="6.5" y="0">8.49</tspan></text><text class="cls-3" transform="translate(165.57 349.03)"><tspan class="cls-6">1</tspan><tspan x="6.43" y="0">9.20</tspan></text><text class="cls-3" transform="translate(34.85 323.35)"><tspan class="cls-20">A</tspan><tspan x="8.83" y="0">cti</tspan><tspan class="cls-21" x="20.82" y="0">v</tspan><tspan x="26.64" y="0">e</tspan></text><text class="cls-3" transform="translate(28.07 349.03)">Cont<tspan class="cls-22" x="25.48" y="0">r</tspan><tspan x="29.87" y="0">ol</tspan></text><text class="cls-3" transform="translate(17.38 160.39) rotate(-90)">Mean</text></svg>