<svg id="Layer_1" data-name="Layer 1" xmlns="http://www.w3.org/2000/svg" viewBox="0 0 504.99 328.28"><defs><style>.cls-1,.cls-2,.cls-5,.cls-6,.cls-8{fill:none;}.cls-1{stroke:#bc442f;}.cls-1,.cls-2,.cls-5,.cls-6,.cls-7,.cls-8{stroke-miterlimit:10;}.cls-1,.cls-2{stroke-width:2px;}.cls-2{stroke:#00b398;}.cls-3{font-size:12px;fill:#444;font-family:Futura-Medium, Futura;}.cls-4{letter-spacing:-0.02em;}.cls-5,.cls-6,.cls-7,.cls-8{stroke:#444;}.cls-6{stroke-width:0.5px;}.cls-7{fill:#fff;}.cls-8{stroke-width:1.07px;}.cls-9{letter-spacing:-0.03em;}.cls-10{letter-spacing:-0.08em;}.cls-11{letter-spacing:-0.06em;}.cls-12{letter-spacing:-0.03em;}.cls-13{letter-spacing:0em;}.cls-14{letter-spacing:-0.02em;}.cls-15{letter-spacing:-0.01em;}</style></defs><title>chart</title><line class="cls-1" x1="181.85" y1="111.98" x2="396.14" y2="133.14"/><line class="cls-2" x1="181.85" y1="138.05" x2="396.14" y2="63.44"/><g id="scale"><text class="cls-3" transform="translate(34.81 10.57)">60.00</text><text class="cls-3" transform="translate(34.81 41.21)">58.00</text><text class="cls-3" transform="translate(34.81 71.86)">56.00</text><text class="cls-3" transform="translate(35.08 102.5)"><tspan class="cls-4">5</tspan><tspan x="7.13" y="0">4.00</tspan></text><text class="cls-3" transform="translate(34.81 133.14)">52.00</text><text class="cls-3" transform="translate(34.81 163.79)">50.00</text><text class="cls-3" transform="translate(34.81 194.43)">48.00</text><text class="cls-3" transform="translate(34.81 225.08)">46.00</text><text class="cls-3" transform="translate(34.81 255.72)">44.00</text></g><line class="cls-5" x1="181.85" y1="122.69" x2="181.85" y2="175.96"/><line class="cls-5" x1="181.85" y1="101.26" x2="181.85" y2="122.69"/><line class="cls-6" x1="184.44" y1="101.26" x2="179.25" y2="101.26"/><line class="cls-5" x1="396.14" y1="122.43" x2="396.14" y2="143.86"/><line class="cls-6" x1="398.73" y1="122.43" x2="393.54" y2="122.43"/><line class="cls-6" x1="398.73" y1="143.86" x2="393.54" y2="143.86"/><line class="cls-6" x1="184.44" y1="122.69" x2="179.25" y2="122.69"/><line class="cls-5" x1="395.69" y1="25.8" x2="395.69" y2="101.07"/><line class="cls-6" x1="398.28" y1="101.07" x2="393.09" y2="101.07"/><line class="cls-6" x1="398.28" y1="25.8" x2="393.09" y2="25.8"/><g id="Axis"><line class="cls-7" x1="76.5" y1="7.74" x2="76.5" y2="327.74"/><line class="cls-7" x1="504.45" y1="302.98" x2="0.5" y2="302.98"/><line class="cls-7" x1="290.48" y1="253.45" x2="290.48" y2="327.74"/><line class="cls-5" x1="491.4" y1="253.45" x2="76.5" y2="253.45"/><polyline class="cls-8" points="484.74 327.74 491.4 327.74 504.45 327.74 504.45 253.45 491.4 253.45"/><line class="cls-5" x1="44.74" y1="327.74" x2="484.74" y2="327.74"/><polyline class="cls-5" points="504.45 278.21 28.74 278.21 0.5 278.21 0.5 327.74 44.74 327.74"/><line class="cls-2" x1="7.24" y1="290.07" x2="22.38" y2="290.07"/><line class="cls-1" x1="7.24" y1="316.41" x2="22.38" y2="316.41"/></g><text class="cls-3" transform="translate(159.25 269.77)">Baseline</text><text class="cls-3" transform="translate(14.81 145.57) rotate(-90)">Mean</text><text class="cls-3" transform="translate(380.96 269.77)"><tspan class="cls-9">P</tspan><tspan x="6.13" y="0">ost-course</tspan></text><text class="cls-3" transform="translate(394.09 295.07)">56.46</text><text class="cls-3" transform="translate(394.9 319.74)"><tspan class="cls-10">5</tspan><tspan class="cls-11" x="6.49" y="0">1</tspan><tspan x="13.19" y="0">.90</tspan></text><text class="cls-3" transform="translate(166.08 295.07)"><tspan class="cls-10">5</tspan><tspan class="cls-11" x="6.49" y="0">1</tspan><tspan x="13.19" y="0">.</tspan><tspan class="cls-12" x="16.89" y="0">5</tspan><tspan x="23.93" y="0">7</tspan></text><text class="cls-3" transform="translate(165.09 319.74)">53.30</text><text class="cls-3" transform="translate(34.85 294.07)"><tspan class="cls-13">A</tspan><tspan x="8.83" y="0">cti</tspan><tspan class="cls-14" x="20.82" y="0">v</tspan><tspan x="26.64" y="0">e</tspan></text><text class="cls-3" transform="translate(28.07 319.74)">Cont<tspan class="cls-15" x="25.48" y="0">r</tspan><tspan x="29.87" y="0">ol</tspan></text><line class="cls-6" x1="184.44" y1="175.96" x2="179.25" y2="175.96"/></svg>