<svg id="Layer_1" data-name="Layer 1" xmlns="http://www.w3.org/2000/svg" viewBox="0 0 292.96 137.2"><defs><style>.cls-1,.cls-3,.cls-5{fill:none;stroke:#77726c;stroke-miterlimit:10;}.cls-1{stroke-width:0.35px;}.cls-2{font-size:7.5px;font-family:FuturaStd-Book, Futura Std;}.cls-2,.cls-4,.cls-6{fill:#77726c;}.cls-3{stroke-width:0.31px;}.cls-5{stroke-width:2.1px;}.cls-6{font-size:8px;font-family:FuturaStd-Heavy, Futura Std;}.cls-7{letter-spacing:-0.03em;}</style></defs><title>individual-and-group-mindfulness</title><rect class="cls-1" x="0.17" y="0.17" width="292.61" height="136.85"/><text class="cls-2" transform="translate(6.95 85.71)">Relatedness</text><text class="cls-2" transform="translate(72.36 42.19)">Autonomy</text><text class="cls-2" transform="translate(67.65 128.21)">Competence</text><text class="cls-2" transform="translate(190.78 127.73)">Cooperation</text><text class="cls-2" transform="translate(198.41 42.19)">Purpose</text><text class="cls-2" transform="translate(254.92 85.7)">Inclusion</text><text class="cls-2" transform="translate(139.85 81.45)">Social </text><text class="cls-2" transform="translate(131.11 90.45)">mindfulness</text><line class="cls-3" x1="88.46" y1="50.13" x2="88.46" y2="82.6"/><polygon class="cls-4" points="87.36 50.44 88.46 48.64 89.56 50.44 87.36 50.44"/><line class="cls-3" x1="88.46" y1="115.05" x2="88.46" y2="82.6"/><polygon class="cls-4" points="89.56 114.75 88.46 116.55 87.36 114.75 89.56 114.75"/><line class="cls-5" x1="118.8" y1="82.6" x2="88.46" y2="82.6"/><polygon class="cls-4" points="117.67 78.94 124.38 82.6 117.67 86.27 117.67 78.94"/><line class="cls-5" x1="58.12" y1="82.6" x2="88.46" y2="82.6"/><polygon class="cls-4" points="59.26 86.27 52.54 82.6 59.26 78.94 59.26 86.27"/><line class="cls-3" x1="53.65" y1="75.17" x2="80.62" y2="49.7"/><polygon class="cls-4" points="54.66 75.69 52.54 76.22 53.11 74.22 54.66 75.69"/><polygon class="cls-4" points="81.16 50.65 81.72 48.64 79.61 49.18 81.16 50.65"/><line class="cls-3" x1="96.31" y1="49.7" x2="123.28" y2="75.17"/><polygon class="cls-4" points="95.77 50.65 95.2 48.64 97.32 49.18 95.77 50.65"/><polygon class="cls-4" points="122.26 75.69 124.38 76.22 123.81 74.22 122.26 75.69"/><line class="cls-3" x1="123.28" y1="90.03" x2="96.32" y2="115.49"/><polygon class="cls-4" points="122.26 89.51 124.38 88.97 123.81 90.98 122.26 89.51"/><polygon class="cls-4" points="95.78 114.54 95.21 116.55 97.33 116.01 95.78 114.54"/><line class="cls-3" x1="80.6" y1="115.49" x2="53.65" y2="90.03"/><polygon class="cls-4" points="81.14 114.54 81.71 116.55 79.59 116.01 81.14 114.54"/><polygon class="cls-4" points="54.66 89.51 52.54 88.97 53.11 90.98 54.66 89.51"/><line class="cls-3" x1="211.28" y1="50.13" x2="211.28" y2="82.6"/><polygon class="cls-4" points="210.18 50.44 211.27 48.64 212.37 50.44 210.18 50.44"/><line class="cls-3" x1="211.28" y1="115.05" x2="211.28" y2="82.6"/><polygon class="cls-4" points="212.37 114.75 211.27 116.55 210.18 114.75 212.37 114.75"/><line class="cls-5" x1="241.61" y1="82.6" x2="211.27" y2="82.6"/><polygon class="cls-4" points="240.48 78.94 247.19 82.6 240.48 86.27 240.48 78.94"/><line class="cls-5" x1="180.93" y1="82.6" x2="211.27" y2="82.6"/><polygon class="cls-4" points="182.07 86.27 175.35 82.6 182.07 78.94 182.07 86.27"/><line class="cls-3" x1="176.46" y1="75.17" x2="203.43" y2="49.7"/><polygon class="cls-4" points="177.47 75.69 175.35 76.22 175.92 74.22 177.47 75.69"/><polygon class="cls-4" points="203.97 50.65 204.53 48.64 202.42 49.18 203.97 50.65"/><line class="cls-3" x1="219.12" y1="49.7" x2="246.09" y2="75.17"/><polygon class="cls-4" points="218.58 50.65 218.01 48.64 220.13 49.18 218.58 50.65"/><polygon class="cls-4" points="245.07 75.69 247.19 76.22 246.63 74.22 245.07 75.69"/><line class="cls-3" x1="246.09" y1="90.03" x2="219.13" y2="115.49"/><polygon class="cls-4" points="245.07 89.51 247.19 88.97 246.63 90.98 245.07 89.51"/><polygon class="cls-4" points="218.59 114.54 218.02 116.55 220.14 116.01 218.59 114.54"/><line class="cls-3" x1="203.42" y1="115.49" x2="176.46" y2="90.03"/><polygon class="cls-4" points="203.96 114.54 204.52 116.55 202.4 116.01 203.96 114.54"/><polygon class="cls-4" points="177.47 89.51 175.35 88.97 175.92 90.98 177.47 89.51"/><text class="cls-6" transform="translate(71.71 24.72)">Individual</text><text class="cls-6" transform="translate(193.78 24.75)">Behaviour</text><text class="cls-2" transform="translate(127.37 14.12)">Resilient<tspan class="cls-7" x="26.23" y="0"> </tspan><tspan x="28.31" y="0">culture</tspan></text></svg>