<svg id="Layer_1" data-name="Layer 1" xmlns="http://www.w3.org/2000/svg" xmlns:xlink="http://www.w3.org/1999/xlink" viewBox="0 0 1366.5 649"><defs><style>.cls-1,.cls-5,.cls-6{fill:none;}.cls-2{font-size:31.68px;font-family:FuturaStd-Book, Futura Std;}.cls-2,.cls-4,.cls-7{fill:#444;}.cls-3{clip-path:url(#clip-path);}.cls-5,.cls-6{stroke:#444;stroke-miterlimit:10;}.cls-5{stroke-width:1.33px;}.cls-6{stroke-width:8.87px;}.cls-7{font-size:33.79px;font-family:FuturaStd-Heavy, Futura Std;}.cls-8{letter-spacing:-0.03em;}</style><clipPath id="clip-path" transform="translate(0.5 3)"><rect class="cls-1" x="48.51" y="52.62" width="1269.63" height="532.38"/></clipPath></defs><title>individual-behaviour_culture__diagram</title><text class="cls-2" transform="translate(97 396.3)">Relatedness</text><text class="cls-2" transform="translate(373.3 212.48)">Autonomy</text><text class="cls-2" transform="translate(353.4 575.87)">Competence</text><text class="cls-2" transform="translate(873.55 573.85)">Cooperation</text><text class="cls-2" transform="translate(905.77 212.48)">Purpose</text><text class="cls-2" transform="translate(1144.5 396.3)">Inclusion</text><g class="cls-3"><path class="cls-4" d="M350.39,344.18" transform="translate(0.5 3)"/></g><text class="cls-2" transform="translate(658.42 378.3)">Social </text><text class="cls-2" transform="translate(621.51 416.32)">mindfulness</text><line class="cls-5" x1="441.32" y1="246.04" x2="441.32" y2="383.18"/><polygon class="cls-4" points="436.71 247.32 441.34 239.74 445.98 247.32 436.71 247.32"/><line class="cls-5" x1="441.32" y1="520.27" x2="441.32" y2="383.18"/><polygon class="cls-4" points="445.98 518.99 441.34 526.57 436.71 518.99 445.98 518.99"/><line class="cls-6" x1="569.51" y1="383.18" x2="441.34" y2="383.18"/><polygon class="cls-4" points="564.71 367.7 593.08 383.18 564.71 398.66 564.71 367.7"/><line class="cls-6" x1="313.18" y1="383.18" x2="441.34" y2="383.18"/><polygon class="cls-4" points="317.97 398.66 289.6 383.18 317.97 367.7 317.97 398.66"/><line class="cls-5" x1="294.28" y1="351.78" x2="408.21" y2="244.21"/><polygon class="cls-4" points="298.55 353.98 289.6 356.25 292 347.79 298.55 353.98"/><polygon class="cls-4" points="410.48 248.19 412.88 239.74 403.93 242 410.48 248.19"/><line class="cls-5" x1="474.48" y1="244.21" x2="588.41" y2="351.78"/><polygon class="cls-4" points="472.2 248.19 469.8 239.74 478.75 242 472.2 248.19"/><polygon class="cls-4" points="584.13 353.98 593.08 356.25 590.68 347.79 584.13 353.98"/><line class="cls-5" x1="588.41" y1="414.58" x2="474.53" y2="522.1"/><polygon class="cls-4" points="584.13 412.37 593.08 410.11 590.68 418.57 584.13 412.37"/><polygon class="cls-4" points="472.25 518.11 469.86 526.57 478.81 524.31 472.25 518.11"/><line class="cls-5" x1="408.15" y1="522.1" x2="294.28" y2="414.58"/><polygon class="cls-4" points="410.43 518.11 412.83 526.57 403.88 524.31 410.43 518.11"/><polygon class="cls-4" points="298.55 412.37 289.6 410.11 292 418.57 298.55 412.37"/><line class="cls-5" x1="960.14" y1="246.04" x2="960.14" y2="383.18"/><polygon class="cls-4" points="955.49 247.32 960.12 239.74 964.76 247.32 955.49 247.32"/><line class="cls-5" x1="960.14" y1="520.27" x2="960.14" y2="383.18"/><polygon class="cls-4" points="964.76 518.99 960.13 526.57 955.49 518.99 964.76 518.99"/><line class="cls-6" x1="1088.29" y1="383.18" x2="960.12" y2="383.18"/><polygon class="cls-4" points="1083.5 367.7 1111.86 383.18 1083.5 398.66 1083.5 367.7"/><line class="cls-6" x1="831.96" y1="383.18" x2="960.12" y2="383.18"/><polygon class="cls-4" points="836.75 398.66 808.39 383.18 836.75 367.7 836.75 398.66"/><line class="cls-5" x1="813.06" y1="351.78" x2="926.99" y2="244.21"/><polygon class="cls-4" points="817.34 353.98 808.39 356.25 810.78 347.79 817.34 353.98"/><polygon class="cls-4" points="929.27 248.19 931.66 239.74 922.71 242 929.27 248.19"/><line class="cls-5" x1="993.26" y1="244.21" x2="1107.19" y2="351.78"/><polygon class="cls-4" points="990.98 248.19 988.59 239.74 997.54 242 990.98 248.19"/><polygon class="cls-4" points="1102.91 353.98 1111.86 356.25 1109.47 347.79 1102.91 353.98"/><line class="cls-5" x1="1107.19" y1="414.58" x2="993.31" y2="522.1"/><polygon class="cls-4" points="1102.91 412.37 1111.86 410.11 1109.47 418.57 1102.91 412.37"/><polygon class="cls-4" points="991.04 518.11 988.64 526.57 997.59 524.31 991.04 518.11"/><line class="cls-5" x1="926.94" y1="522.1" x2="813.06" y2="414.58"/><polygon class="cls-4" points="929.21 518.11 931.61 526.57 922.66 524.31 929.21 518.11"/><polygon class="cls-4" points="817.34 412.37 808.39 410.11 810.78 418.57 817.34 412.37"/><text class="cls-7" transform="translate(370.58 138.67)">Individual</text><text class="cls-7" transform="translate(886.24 138.81)">Behaviour</text><text class="cls-2" transform="translate(605.72 93.92)">Resilient<tspan class="cls-8" x="110.82" y="0"> </tspan><tspan x="119.6" y="0">culture</tspan></text><path class="cls-4" d="M1365.09-2.09V645.09H.41V-2.09H1365.09M1366-3H-.5V646H1366V-3Z" transform="translate(0.5 3)"/></svg>