<svg id="Layer_1" data-name="Layer 1" xmlns="http://www.w3.org/2000/svg" viewBox="0 0 1366 720"><defs><style>.cls-1{font-size:31.68px;font-family:FuturaStd-Book, Futura Std;}.cls-1,.cls-3,.cls-5{fill:#77726c;}.cls-2,.cls-4{fill:none;stroke:#77726c;stroke-miterlimit:10;}.cls-2{stroke-width:1.33px;}.cls-4{stroke-width:8.87px;}.cls-5{font-size:33.79px;font-family:FuturaStd-Heavy, Futura Std;}.cls-6{letter-spacing:-0.03em;}</style></defs><title>individual-and-group-mindfulness</title><text class="cls-1" transform="translate(96.5 434.3)">Relatedness</text><text class="cls-1" transform="translate(372.8 250.48)">Autonomy</text><text class="cls-1" transform="translate(352.9 613.87)">Competence</text><text class="cls-1" transform="translate(873.05 611.85)">Cooperation</text><text class="cls-1" transform="translate(905.27 250.48)">Purpose</text><text class="cls-1" transform="translate(1144 434.3)">Inclusion</text><text class="cls-1" transform="translate(657.92 416.3)">Social </text><text class="cls-1" transform="translate(621.01 454.32)">mindfulness</text><line class="cls-2" x1="440.82" y1="284.04" x2="440.82" y2="421.18"/><polygon class="cls-3" points="436.21 285.32 440.84 277.74 445.48 285.32 436.21 285.32"/><line class="cls-2" x1="440.82" y1="558.27" x2="440.82" y2="421.18"/><polygon class="cls-3" points="445.48 556.99 440.84 564.57 436.21 556.99 445.48 556.99"/><line class="cls-4" x1="569.01" y1="421.18" x2="440.84" y2="421.18"/><polygon class="cls-3" points="564.21 405.7 592.58 421.18 564.21 436.66 564.21 405.7"/><line class="cls-4" x1="312.68" y1="421.18" x2="440.84" y2="421.18"/><polygon class="cls-3" points="317.47 436.66 289.1 421.18 317.47 405.7 317.47 436.66"/><line class="cls-2" x1="293.78" y1="389.78" x2="407.71" y2="282.21"/><polygon class="cls-3" points="298.05 391.98 289.1 394.25 291.5 385.79 298.05 391.98"/><polygon class="cls-3" points="409.98 286.19 412.38 277.74 403.43 280 409.98 286.19"/><line class="cls-2" x1="473.98" y1="282.21" x2="587.91" y2="389.78"/><polygon class="cls-3" points="471.7 286.19 469.3 277.74 478.25 280 471.7 286.19"/><polygon class="cls-3" points="583.63 391.98 592.58 394.25 590.18 385.79 583.63 391.98"/><line class="cls-2" x1="587.91" y1="452.58" x2="474.03" y2="560.1"/><polygon class="cls-3" points="583.63 450.37 592.58 448.11 590.18 456.57 583.63 450.37"/><polygon class="cls-3" points="471.75 556.11 469.36 564.57 478.31 562.31 471.75 556.11"/><line class="cls-2" x1="407.65" y1="560.1" x2="293.78" y2="452.58"/><polygon class="cls-3" points="409.93 556.11 412.33 564.57 403.38 562.31 409.93 556.11"/><polygon class="cls-3" points="298.05 450.37 289.1 448.11 291.5 456.57 298.05 450.37"/><line class="cls-2" x1="959.64" y1="284.04" x2="959.64" y2="421.18"/><polygon class="cls-3" points="954.99 285.32 959.62 277.74 964.26 285.32 954.99 285.32"/><line class="cls-2" x1="959.64" y1="558.27" x2="959.64" y2="421.18"/><polygon class="cls-3" points="964.26 556.99 959.63 564.57 954.99 556.99 964.26 556.99"/><line class="cls-4" x1="1087.79" y1="421.18" x2="959.62" y2="421.18"/><polygon class="cls-3" points="1083 405.7 1111.36 421.18 1083 436.66 1083 405.7"/><line class="cls-4" x1="831.46" y1="421.18" x2="959.62" y2="421.18"/><polygon class="cls-3" points="836.25 436.66 807.89 421.18 836.25 405.7 836.25 436.66"/><line class="cls-2" x1="812.56" y1="389.78" x2="926.49" y2="282.21"/><polygon class="cls-3" points="816.84 391.98 807.89 394.25 810.28 385.79 816.84 391.98"/><polygon class="cls-3" points="928.77 286.19 931.16 277.74 922.21 280 928.77 286.19"/><line class="cls-2" x1="992.76" y1="282.21" x2="1106.69" y2="389.78"/><polygon class="cls-3" points="990.48 286.19 988.09 277.74 997.04 280 990.48 286.19"/><polygon class="cls-3" points="1102.41 391.98 1111.36 394.25 1108.97 385.79 1102.41 391.98"/><line class="cls-2" x1="1106.69" y1="452.58" x2="992.81" y2="560.1"/><polygon class="cls-3" points="1102.41 450.37 1111.36 448.11 1108.97 456.57 1102.41 450.37"/><polygon class="cls-3" points="990.54 556.11 988.14 564.57 997.09 562.31 990.54 556.11"/><line class="cls-2" x1="926.44" y1="560.1" x2="812.56" y2="452.58"/><polygon class="cls-3" points="928.71 556.11 931.11 564.57 922.16 562.31 928.71 556.11"/><polygon class="cls-3" points="816.84 450.37 807.89 448.11 810.28 456.57 816.84 450.37"/><text class="cls-5" transform="translate(370.08 176.67)">Individual</text><text class="cls-5" transform="translate(885.74 176.81)">Behaviour</text><text class="cls-1" transform="translate(605.22 131.92)">Resilient<tspan class="cls-6" x="110.82" y="0"> </tspan><tspan x="119.6" y="0">culture</tspan></text></svg>