<svg id="Layer_1" data-name="Layer 1" xmlns="http://www.w3.org/2000/svg" xmlns:xlink="http://www.w3.org/1999/xlink" viewBox="0 0 1366.5 776"><defs><style>.cls-1,.cls-5,.cls-6{fill:none;}.cls-2{font-size:31.68px;font-family:FuturaStd-Book, Futura Std;}.cls-2,.cls-4,.cls-7{fill:#444;}.cls-3{clip-path:url(#clip-path);}.cls-5,.cls-6{stroke:#444;stroke-miterlimit:10;}.cls-5{stroke-width:1.33px;}.cls-6{stroke-width:8.87px;}.cls-7{font-size:33.79px;font-family:FuturaStd-Heavy, Futura Std;}.cls-8{letter-spacing:-0.03em;}</style><clipPath id="clip-path" transform="translate(0.5 0.5)"><rect class="cls-1" x="48.51" y="121.62" width="1269.63" height="532.38"/></clipPath></defs><title>individual-and-group-mindfulness</title><text class="cls-2" transform="translate(97 462.8)">Relatedness</text><text class="cls-2" transform="translate(373.3 278.98)">Autonomy</text><text class="cls-2" transform="translate(353.4 642.37)">Competence</text><text class="cls-2" transform="translate(873.55 640.35)">Cooperation</text><text class="cls-2" transform="translate(905.77 278.98)">Purpose</text><text class="cls-2" transform="translate(1144.5 462.8)">Inclusion</text><g class="cls-3"><path class="cls-4" d="M350.39,413.18" transform="translate(0.5 0.5)"/></g><text class="cls-2" transform="translate(658.42 444.8)">Social </text><text class="cls-2" transform="translate(621.51 482.82)">mindfulness</text><line class="cls-5" x1="441.32" y1="312.54" x2="441.32" y2="449.68"/><polygon class="cls-4" points="436.71 313.82 441.34 306.24 445.98 313.82 436.71 313.82"/><line class="cls-5" x1="441.32" y1="586.77" x2="441.32" y2="449.68"/><polygon class="cls-4" points="445.98 585.49 441.34 593.07 436.71 585.49 445.98 585.49"/><line class="cls-6" x1="569.51" y1="449.68" x2="441.34" y2="449.68"/><polygon class="cls-4" points="564.71 434.2 593.08 449.68 564.71 465.16 564.71 434.2"/><line class="cls-6" x1="313.18" y1="449.68" x2="441.34" y2="449.68"/><polygon class="cls-4" points="317.97 465.16 289.6 449.68 317.97 434.2 317.97 465.16"/><line class="cls-5" x1="294.28" y1="418.28" x2="408.21" y2="310.71"/><polygon class="cls-4" points="298.55 420.48 289.6 422.75 292 414.29 298.55 420.48"/><polygon class="cls-4" points="410.48 314.69 412.88 306.24 403.93 308.5 410.48 314.69"/><line class="cls-5" x1="474.48" y1="310.71" x2="588.41" y2="418.28"/><polygon class="cls-4" points="472.2 314.69 469.8 306.24 478.75 308.5 472.2 314.69"/><polygon class="cls-4" points="584.13 420.48 593.08 422.75 590.68 414.29 584.13 420.48"/><line class="cls-5" x1="588.41" y1="481.08" x2="474.53" y2="588.6"/><polygon class="cls-4" points="584.13 478.87 593.08 476.61 590.68 485.07 584.13 478.87"/><polygon class="cls-4" points="472.25 584.61 469.86 593.07 478.81 590.81 472.25 584.61"/><line class="cls-5" x1="408.15" y1="588.6" x2="294.28" y2="481.08"/><polygon class="cls-4" points="410.43 584.61 412.83 593.07 403.88 590.81 410.43 584.61"/><polygon class="cls-4" points="298.55 478.87 289.6 476.61 292 485.07 298.55 478.87"/><line class="cls-5" x1="960.14" y1="312.54" x2="960.14" y2="449.68"/><polygon class="cls-4" points="955.49 313.82 960.12 306.24 964.76 313.82 955.49 313.82"/><line class="cls-5" x1="960.14" y1="586.77" x2="960.14" y2="449.68"/><polygon class="cls-4" points="964.76 585.49 960.13 593.07 955.49 585.49 964.76 585.49"/><line class="cls-6" x1="1088.29" y1="449.68" x2="960.12" y2="449.68"/><polygon class="cls-4" points="1083.5 434.2 1111.86 449.68 1083.5 465.16 1083.5 434.2"/><line class="cls-6" x1="831.96" y1="449.68" x2="960.12" y2="449.68"/><polygon class="cls-4" points="836.75 465.16 808.39 449.68 836.75 434.2 836.75 465.16"/><line class="cls-5" x1="813.06" y1="418.28" x2="926.99" y2="310.71"/><polygon class="cls-4" points="817.34 420.48 808.39 422.75 810.78 414.29 817.34 420.48"/><polygon class="cls-4" points="929.27 314.69 931.66 306.24 922.71 308.5 929.27 314.69"/><line class="cls-5" x1="993.26" y1="310.71" x2="1107.19" y2="418.28"/><polygon class="cls-4" points="990.98 314.69 988.59 306.24 997.54 308.5 990.98 314.69"/><polygon class="cls-4" points="1102.91 420.48 1111.86 422.75 1109.47 414.29 1102.91 420.48"/><line class="cls-5" x1="1107.19" y1="481.08" x2="993.31" y2="588.6"/><polygon class="cls-4" points="1102.91 478.87 1111.86 476.61 1109.47 485.07 1102.91 478.87"/><polygon class="cls-4" points="991.04 584.61 988.64 593.07 997.59 590.81 991.04 584.61"/><line class="cls-5" x1="926.94" y1="588.6" x2="813.06" y2="481.08"/><polygon class="cls-4" points="929.21 584.61 931.61 593.07 922.66 590.81 929.21 584.61"/><polygon class="cls-4" points="817.34 478.87 808.39 476.61 810.78 485.07 817.34 478.87"/><text class="cls-7" transform="translate(370.58 205.17)">Individual</text><text class="cls-7" transform="translate(886.24 205.31)">Behaviour</text><text class="cls-2" transform="translate(605.72 160.42)">Resilient<tspan class="cls-8" x="110.82" y="0"> </tspan><tspan x="119.6" y="0">culture</tspan></text><path class="cls-4" d="M1365,.5v774H.5V.5H1365m1-1H-.5v776H1366V-.5Z" transform="translate(0.5 0.5)"/></svg>