<?xml version="1.0" encoding="utf-8"?>
<!-- Generator: Adobe Illustrator 22.0.1, SVG Export Plug-In . SVG Version: 6.00 Build 0)  -->
<svg version="1.1" id="Layer_1" xmlns="http://www.w3.org/2000/svg" xmlns:xlink="http://www.w3.org/1999/xlink" x="0px" y="0px"
	 viewBox="0 0 426 409.2" style="enable-background:new 0 0 426 409.2;" xml:space="preserve">
<style type="text/css">
	.st0{fill:#FFFFFF;}
</style>
<title>mindfulness-connected-logo</title>
<path class="st0" d="M212.9,175.8c-21,0-38,17-38,38c0,4.5,0.8,9,2.4,13.3l0,0c5,15.6-3.6,32.2-19.1,37.2c-0.1,0-0.2,0.1-0.2,0.1
	c-15.7,5.1-32.6-3.5-37.7-19.2l0,0c-3.7-10.4-5.5-21.3-5.4-32.3c0-35.8,19.5-68.8,50.9-86l0.2-0.1c13.5-8.3,17.7-26.1,9.3-39.6
	c-8.1-13.1-25.1-17.5-38.6-9.9l-0.2,0.2c-74.8,42.2-101.2,137-58.9,211.8c16.1,28.5,40.7,51.1,70.4,64.8l1.6,0.7
	c14.2,7.2,19.8,24.5,12.6,38.7c-6.7,13.2-22.3,19.1-36.1,13.7l-0.7-0.3C49,372.4,0,296.5,0,212.9C0,95.3,95.3,0,212.9,0h0.3
	C330.7,0,426,95.3,426,212.9c0,83.7-49,159.6-125.2,194l-0.7,0.3c-14.8,5.9-31.5-1.3-37.3-16.1c-5.5-13.8,0.5-29.6,13.8-36.3
	l1.6-0.7c78-35.9,112.1-128.2,76.2-206.2c-13.7-29.7-36.3-54.3-64.8-70.4l-0.2-0.2c-13.8-7.8-31.4-2.9-39.2,10.9
	c-7.6,13.4-3.2,30.5,9.9,38.6l0.2,0.1c31.4,17.2,51,50.2,50.9,86c0.1,11-1.7,21.9-5.4,32.3l0,0c-5.1,15.7-22,24.3-37.7,19.2
	c-15.6-4.9-24.3-21.5-19.5-37.1c0-0.1,0.1-0.2,0.1-0.2l0,0c7.3-19.7-2.7-41.5-22.4-48.9c-4.2-1.6-8.7-2.4-13.3-2.4"/>
</svg>
