<svg id="Layer_1" data-name="Layer 1" xmlns="http://www.w3.org/2000/svg" viewBox="0 0 1555.75 409.24"><defs><style>.cls-1{fill:#00b398;}.cls-2{fill:none;}</style></defs><title>mindfulness-connected-logo</title><path class="cls-1" d="M212.85,175.84a38,38,0,0,0-35.64,51.25h0a29.6,29.6,0,0,1-19.39,37.3,29.9,29.9,0,0,1-37.67-19.2h0a93.74,93.74,0,0,1-5.36-32.29,98,98,0,0,1,50.94-86l.16-.05a28.76,28.76,0,0,0-29.24-49.52l-.19.15a155.46,155.46,0,0,0,11.43,276.59l1.62.74A28.75,28.75,0,0,1,126,407.21l-.74-.33A212.88,212.88,0,0,1,0,212.85C0,95.3,95.3,0,212.85,0h.34C330.74,0,426,95.3,426,212.85a212.88,212.88,0,0,1-125.25,194l-.74.33a28.75,28.75,0,0,1-23.54-52.4l1.62-.74A155.45,155.45,0,0,0,289.56,77.48l-.19-.15a28.76,28.76,0,0,0-29.24,49.52l.16.05a98,98,0,0,1,50.94,86,93.74,93.74,0,0,1-5.36,32.29h0a29.9,29.9,0,0,1-37.67,19.2,29.6,29.6,0,0,1-19.39-37.3h0a38,38,0,0,0-35.64-51.25"/><path class="cls-1" d="M529.28,177.74,560.19,19.83,610.61,134,662.83,19.83,690.6,177.74H667.87L653.7,89.08l-43.47,95.41L568,89,552.2,177.74Z"/><path class="cls-1" d="M714.39,46.56a14,14,0,0,1,13.88-13.79,13.48,13.48,0,0,1,9.9,4.09,13.19,13.19,0,0,1,4.09,9.8,13.5,13.5,0,0,1-4.09,9.89,13.18,13.18,0,0,1-9.8,4.09,14,14,0,0,1-14-14.08ZM739,85.09v92.65h-21.4V85.09Z"/><path class="cls-1" d="M766.13,85.09h21.5v8.56q11.22-11.13,25.3-11.13,16.17,0,25.21,10.18,7.8,8.65,7.8,28.25v56.79h-21.5V126q0-13.69-3.8-18.93t-13.51-5.33q-10.65,0-15.12,7T787.63,133v44.71h-21.5Z"/><path class="cls-1" d="M941.25,17.07h21.5V177.74h-21.5V168q-12.64,12.38-28.63,12.37-19,0-31.58-13.89-12.46-14.17-12.46-35.38,0-20.75,12.46-34.63a39.76,39.76,0,0,1,31.11-14q16.26,0,29.1,13.32ZM890.46,131.13q0,13.32,7.13,21.69a23.38,23.38,0,0,0,18.46,8.46q11.88,0,19.21-8.18,7.32-8.46,7.32-21.5t-7.32-21.49q-7.32-8.28-19-8.28a23.67,23.67,0,0,0-18.46,8.37Q890.46,118.67,890.46,131.13Z"/><path class="cls-1" d="M1011.93,105.06v72.68h-21.5V105.06h-7.61v-20h7.61V49.32q0-17.51,6.09-24.73,8.37-10.08,24.35-10.08,5.72,0,14.36,3.33V39.71l-2.18-1.14q-6.94-3.51-11.42-3.52c-3.8,0-6.37,1.37-7.7,4.09s-2,7.8-2,15.41V85.09h23.3v20Z"/><path class="cls-1" d="M1069,85.09v53.17q0,23,18.17,23t18.17-23V85.09h21.4v53.65A59.63,59.63,0,0,1,1124,158a32.19,32.19,0,0,1-9.22,13q-10.85,9.42-27.59,9.42T1059.68,171a32.74,32.74,0,0,1-9.42-13q-2.65-6.47-2.66-19.21V85.09Z"/><path class="cls-1" d="M1175.16,17.07V177.74h-21.4V17.07Z"/><path class="cls-1" d="M1202.27,85.09h21.5v8.56q11.22-11.13,25.3-11.13,16.17,0,25.21,10.18,7.8,8.65,7.8,28.25v56.79h-21.5V126q0-13.69-3.8-18.93t-13.51-5.33q-10.65,0-15.13,7T1223.77,133v44.71h-21.5Z"/><path class="cls-1" d="M1393.47,136.45h-66.4q.86,11.42,7.42,18.17t16.84,6.66q8,0,13.22-3.8t11.7-14.08l18.07,10.08a72,72,0,0,1-8.84,12.22,47,47,0,0,1-10,8.38,40.43,40.43,0,0,1-11.51,4.8,56.24,56.24,0,0,1-13.41,1.52q-20.74,0-33.3-13.32t-12.55-35.57q0-22,12.17-35.58,12.27-13.41,32.54-13.41,20.44,0,32.34,13t11.79,35.86Zm-22-17.5q-4.47-17.11-21.59-17.12a22.21,22.21,0,0,0-7.32,1.19,20.79,20.79,0,0,0-6.23,3.42,21.6,21.6,0,0,0-4.81,5.38,25.07,25.07,0,0,0-3,7.13Z"/><path class="cls-1" d="M1470.71,100.88,1453,110.3q-4.2-8.56-10.37-8.57a7.2,7.2,0,0,0-5.05,2,6.57,6.57,0,0,0-2.09,5q0,5.32,12.37,10.56,17,7.32,22.92,13.5t5.9,16.65a29.18,29.18,0,0,1-9.89,22.45,33.66,33.66,0,0,1-23.21,8.56q-23.31,0-33-22.73l18.26-8.47q3.81,6.66,5.81,8.47a13.22,13.22,0,0,0,9.32,3.61q10.85,0,10.84-9.89,0-5.71-8.37-10.66c-2.16-1.07-4.31-2.12-6.47-3.13s-4.34-2.06-6.56-3.14q-9.33-4.58-13.13-9.14-4.85-5.79-4.85-14.93,0-12.08,8.28-20a29,29,0,0,1,20.54-7.89Q1462,82.52,1470.71,100.88Z"/><path class="cls-1" d="M1549.75,100.88l-17.69,9.42q-4.18-8.56-10.37-8.57a7.19,7.19,0,0,0-5,2,6.57,6.57,0,0,0-2.09,5q0,5.32,12.37,10.56,17,7.32,22.92,13.5t5.9,16.65a29.16,29.16,0,0,1-9.9,22.45,33.65,33.65,0,0,1-23.21,8.56q-23.3,0-33-22.73l18.26-8.47q3.81,6.66,5.8,8.47a13.24,13.24,0,0,0,9.32,3.61q10.85,0,10.85-9.89,0-5.71-8.37-10.66c-2.16-1.07-4.32-2.12-6.47-3.13s-4.34-2.06-6.56-3.14q-9.33-4.58-13.13-9.14-4.86-5.79-4.85-14.93,0-12.08,8.27-20a29.07,29.07,0,0,1,20.55-7.89Q1541.1,82.52,1549.75,100.88Z"/><path class="cls-1" d="M643,266.34V292.6q-19.22-16.08-39.76-16.08-22.65,0-38.15,16.27t-15.6,39.57q0,23.11,15.6,39t38.24,15.88q11.7,0,19.88-3.8a57.16,57.16,0,0,0,9.47-5.14A111.19,111.19,0,0,0,643,370.5v26.73A80,80,0,0,1,603,408q-31.49,0-53.75-22-22.15-22.17-22.16-53.46,0-28.07,18.55-50,22.83-26.91,59.07-26.92Q624.49,255.59,643,266.34Z"/><path class="cls-1" d="M662.45,358.33a46,46,0,0,1,14.36-34.15q14.37-14.08,35-14.08T747,324.27q14.26,14.18,14.27,34.82,0,20.82-14.36,34.91t-35.48,14q-20.84,0-34.91-14.27Q662.45,379.64,662.45,358.33Zm21.88.38q0,13.89,7.42,22,7.61,8.18,20.07,8.18t20.07-8.09q7.51-8.07,7.51-21.59t-7.51-21.59q-7.62-8.18-20.07-8.18-12.27,0-19.88,8.18T684.33,358.71Z"/><path class="cls-1" d="M783.92,312.67h21.5v8.56q11.22-11.13,25.3-11.13,16.17,0,25.21,10.18,7.8,8.66,7.8,28.25v56.79h-21.5V353.57q0-13.69-3.8-18.93t-13.51-5.33q-10.67,0-15.13,7t-4.37,24.26v44.71h-21.5Z"/><path class="cls-1" d="M890.74,312.67h21.5v8.56q11.22-11.13,25.3-11.13,16.17,0,25.21,10.18,7.8,8.66,7.8,28.25v56.79h-21.5V353.57q0-13.69-3.8-18.93t-13.51-5.33q-10.65,0-15.12,7t-4.38,24.26v44.71h-21.5Z"/><path class="cls-1" d="M1081.94,364h-66.4q.86,11.42,7.42,18.17t16.84,6.66q8,0,13.22-3.8t11.7-14.08l18.08,10.08a72,72,0,0,1-8.85,12.22,46.69,46.69,0,0,1-10,8.37,40.17,40.17,0,0,1-11.51,4.81A56.24,56.24,0,0,1,1039,408q-20.74,0-33.29-13.32t-12.56-35.57q0-22,12.18-35.58,12.27-13.41,32.53-13.41,20.44,0,32.34,13T1082,359Zm-22-17.5q-4.48-17.11-21.6-17.12a22,22,0,0,0-7.32,1.19,20.91,20.91,0,0,0-6.23,3.42,21.8,21.8,0,0,0-4.81,5.38,25.07,25.07,0,0,0-3,7.13Z"/><path class="cls-1" d="M1177.44,316.66V345.1q-7.32-8.94-13.12-12.27a25.63,25.63,0,0,0-13.42-3.42,26.46,26.46,0,0,0-20.07,8.46q-8,8.47-8,21.22,0,13,7.71,21.4t19.88,8.37a27.19,27.19,0,0,0,13.6-3.33q5.71-3.22,13.41-12.56v28.26a56.22,56.22,0,0,1-26.06,6.75q-21.5,0-36-13.89T1101,359.37q0-20.73,14.65-35t36-14.27A53.79,53.79,0,0,1,1177.44,316.66Z"/><path class="cls-1" d="M1220.25,332.64v72.68h-21.4V332.64h-9.14v-20h9.14v-34h21.4v34h16.64v20Z"/><path class="cls-1" d="M1337.54,364h-66.4q.85,11.42,7.42,18.17t16.84,6.66q8,0,13.22-3.8t11.7-14.08l18.07,10.08a72,72,0,0,1-8.84,12.22,46.69,46.69,0,0,1-10,8.37,40.28,40.28,0,0,1-11.51,4.81,56.36,56.36,0,0,1-13.41,1.52q-20.75,0-33.3-13.32t-12.55-35.57q0-22,12.17-35.58,12.27-13.41,32.53-13.41,20.46,0,32.35,13T1337.63,359Zm-22-17.5q-4.47-17.11-21.59-17.12a22.05,22.05,0,0,0-7.33,1.19,20.91,20.91,0,0,0-6.23,3.42,21.57,21.57,0,0,0-4.8,5.38,24.79,24.79,0,0,0-3,7.13Z"/><path class="cls-1" d="M1429.23,244.65h21.5V405.32h-21.5v-9.71Q1416.59,408,1400.6,408q-19,0-31.58-13.89-12.46-14.18-12.46-35.38,0-20.74,12.46-34.63a39.76,39.76,0,0,1,31.11-14q16.26,0,29.1,13.32Zm-50.79,114.06q0,13.32,7.13,21.68a23.36,23.36,0,0,0,18.46,8.47q11.88,0,19.21-8.18,7.32-8.46,7.33-21.5t-7.33-21.5q-7.32-8.26-19-8.27a23.67,23.67,0,0,0-18.46,8.37Q1378.44,346.24,1378.44,358.71Z"/><rect class="cls-2" x="-102.93" y="-110.34" width="1763.88" height="627.2"/></svg>