<svg id="Layer_1" data-name="Layer 1" xmlns="http://www.w3.org/2000/svg" viewBox="0 0 400 105.22"><defs><style>.cls-1{fill:#fff;}</style></defs><title>mindfulness-connected-logo_w</title><path class="cls-1" d="M54.73,45.21a9.78,9.78,0,0,0-9.17,13.18h0a7.6,7.6,0,0,1-5,9.59A7.68,7.68,0,0,1,30.9,63h0a24,24,0,0,1-1.38-8.3,25.19,25.19,0,0,1,13.1-22.11l0,0a7.39,7.39,0,0,0-7.52-12.73l0,0A40,40,0,0,0,38,91l.42.2a7.39,7.39,0,0,1-6.06,13.47l-.19-.09A54.73,54.73,0,0,1,54.73,0h.08A54.73,54.73,0,0,1,77.34,104.61l-.19.09a7.39,7.39,0,0,1-6.06-13.47l.42-.2a40,40,0,0,0,2.94-71.11l0,0a7.39,7.39,0,0,0-7.52,12.73l0,0A25.19,25.19,0,0,1,80,54.74,24,24,0,0,1,78.64,63h0A7.68,7.68,0,0,1,69,68a7.6,7.6,0,0,1-5-9.59h0a9.78,9.78,0,0,0-9.17-13.18"/><path class="cls-1" d="M136.08,45.7,144,5.1l13,29.35L170.42,5.1l7.14,40.6h-5.84l-3.65-22.8L156.9,47.43,146,22.88,142,45.7Z"/><path class="cls-1" d="M183.68,12a3.4,3.4,0,0,1,1-2.49,3.57,3.57,0,0,1,5.06,0A3.37,3.37,0,0,1,190.84,12a3.47,3.47,0,0,1-1.05,2.54,3.37,3.37,0,0,1-2.52,1.05,3.47,3.47,0,0,1-2.54-1.05A3.5,3.5,0,0,1,183.68,12ZM190,21.88V45.7h-5.5V21.88Z"/><path class="cls-1" d="M197,21.88h5.53v2.2a9,9,0,0,1,6.5-2.86,8.24,8.24,0,0,1,6.49,2.61q2,2.24,2,7.27V45.7H212V32.39c0-2.34-.32-4-1-4.86s-1.79-1.37-3.47-1.37A4.25,4.25,0,0,0,203.63,28q-1.12,1.79-1.12,6.23V45.7H197Z"/><path class="cls-1" d="M242,4.39h5.52V45.7H242V43.2a10.28,10.28,0,0,1-7.36,3.18,10.47,10.47,0,0,1-8.12-3.57,13.26,13.26,0,0,1-3.21-9.1,12.82,12.82,0,0,1,3.21-8.9A10.3,10.3,0,0,1,242,24.64ZM229,33.71a8.3,8.3,0,0,0,1.83,5.58,6,6,0,0,0,4.75,2.18,6.31,6.31,0,0,0,4.94-2.11,8.16,8.16,0,0,0,1.88-5.52,8.16,8.16,0,0,0-1.88-5.53,6.24,6.24,0,0,0-4.9-2.13,6.09,6.09,0,0,0-4.74,2.15A7.93,7.93,0,0,0,229,33.71Z"/><path class="cls-1" d="M260.18,27V45.7h-5.53V27h-2V21.88h2v-9.2q0-4.5,1.57-6.36a7.66,7.66,0,0,1,6.26-2.59,10.76,10.76,0,0,1,3.69.86v5.62l-.56-.29A6.84,6.84,0,0,0,262.67,9a2,2,0,0,0-2,1.05,10.25,10.25,0,0,0-.51,4v7.85h6V27Z"/><path class="cls-1" d="M274.85,21.88V35.55c0,3.94,1.56,5.92,4.67,5.92s4.68-2,4.68-5.92V21.88h5.5V35.67a15.39,15.39,0,0,1-.71,4.94A8.34,8.34,0,0,1,286.62,44a11.57,11.57,0,0,1-14.16,0A8.4,8.4,0,0,1,270,40.61a13.77,13.77,0,0,1-.68-4.94V21.88Z"/><path class="cls-1" d="M302.15,4.39V45.7h-5.51V4.39Z"/><path class="cls-1" d="M309.12,21.88h5.52v2.2a9,9,0,0,1,6.51-2.86,8.23,8.23,0,0,1,6.48,2.61q2,2.24,2,7.27V45.7h-5.53V32.39c0-2.34-.33-4-1-4.86s-1.79-1.37-3.47-1.37A4.24,4.24,0,0,0,315.77,28q-1.12,1.79-1.13,6.23V45.7h-5.52Z"/><path class="cls-1" d="M358.28,35.08H341.2a7.3,7.3,0,0,0,1.91,4.68,5.83,5.83,0,0,0,4.33,1.71,5.65,5.65,0,0,0,3.4-1,14,14,0,0,0,3-3.62l4.65,2.59a18.58,18.58,0,0,1-2.28,3.14,12,12,0,0,1-2.57,2.16,10.3,10.3,0,0,1-3,1.23,14.44,14.44,0,0,1-3.44.39A11.21,11.21,0,0,1,338.69,43a12.82,12.82,0,0,1-3.23-9.15,13.17,13.17,0,0,1,3.13-9.14,11.93,11.93,0,0,1,16.68-.1q3,3.32,3,9.22Zm-5.65-4.5q-1.15-4.39-5.56-4.4a5.58,5.58,0,0,0-1.88.31,5.1,5.1,0,0,0-1.6.88,5.67,5.67,0,0,0-1.24,1.38,6.56,6.56,0,0,0-.78,1.83Z"/><path class="cls-1" d="M378.14,25.94l-4.55,2.42c-.72-1.47-1.61-2.2-2.67-2.2a1.81,1.81,0,0,0-1.3.5,1.69,1.69,0,0,0-.53,1.28c0,.92,1.06,1.82,3.18,2.72a18.91,18.91,0,0,1,5.89,3.47,6,6,0,0,1,1.52,4.28,7.49,7.49,0,0,1-2.55,5.77,8.62,8.62,0,0,1-6,2.2q-6,0-8.49-5.84l4.69-2.18a10.25,10.25,0,0,0,1.5,2.18,3.37,3.37,0,0,0,2.39.93q2.79,0,2.79-2.55c0-1-.72-1.89-2.15-2.74l-1.66-.8-1.69-.81a10.27,10.27,0,0,1-3.38-2.35,5.77,5.77,0,0,1-1.24-3.84,6.77,6.77,0,0,1,2.12-5.13,7.45,7.45,0,0,1,5.29-2C374.39,21.22,376.65,22.79,378.14,25.94Z"/><path class="cls-1" d="M398.46,25.94l-4.55,2.42c-.72-1.47-1.61-2.2-2.67-2.2a1.8,1.8,0,0,0-1.29.5,1.66,1.66,0,0,0-.54,1.28c0,.92,1.06,1.82,3.18,2.72a18.79,18.79,0,0,1,5.89,3.47A6,6,0,0,1,400,38.41a7.51,7.51,0,0,1-2.54,5.77,8.66,8.66,0,0,1-6,2.2c-4,0-6.82-2-8.49-5.84l4.7-2.18a10.33,10.33,0,0,0,1.49,2.18,3.41,3.41,0,0,0,2.4.93c1.86,0,2.78-.85,2.78-2.55,0-1-.71-1.89-2.15-2.74l-1.66-.8-1.69-.81a10.1,10.1,0,0,1-3.37-2.35,5.78,5.78,0,0,1-1.25-3.84,6.77,6.77,0,0,1,2.13-5.13,7.43,7.43,0,0,1,5.28-2Q396.23,21.22,398.46,25.94Z"/><path class="cls-1" d="M165.31,68.48v6.75a15.76,15.76,0,0,0-10.22-4.13,13,13,0,0,0-9.81,4.18,14.06,14.06,0,0,0-4,10.17,13.74,13.74,0,0,0,4,10,13.25,13.25,0,0,0,9.83,4.08,12.07,12.07,0,0,0,5.11-1,15.56,15.56,0,0,0,2.44-1.32,32.05,32.05,0,0,0,2.65-2v6.87A20.52,20.52,0,0,1,155,104.9a19,19,0,0,1-13.82-5.65,18.73,18.73,0,0,1-5.7-13.75,19.37,19.37,0,0,1,4.77-12.86,19,19,0,0,1,15.19-6.92A19.29,19.29,0,0,1,165.31,68.48Z"/><path class="cls-1" d="M170.32,92.13a11.81,11.81,0,0,1,3.7-8.78,13,13,0,0,1,18,0,12.77,12.77,0,0,1,0,17.93,12.62,12.62,0,0,1-9.12,3.6,12.15,12.15,0,0,1-9-3.67A12.37,12.37,0,0,1,170.32,92.13Zm5.63.1a8,8,0,0,0,1.91,5.65,7.41,7.41,0,0,0,10.32,0,8.94,8.94,0,0,0,0-11.1,7.32,7.32,0,0,0-10.28,0A7.66,7.66,0,0,0,176,92.23Z"/><path class="cls-1" d="M201.55,80.39h5.53v2.2a9,9,0,0,1,6.51-2.86,8.2,8.2,0,0,1,6.48,2.62c1.34,1.48,2,3.9,2,7.26v14.6h-5.52V90.91c0-2.35-.33-4-1-4.87a4,4,0,0,0-3.47-1.37,4.23,4.23,0,0,0-3.89,1.81q-1.12,1.78-1.13,6.24v11.49h-5.53Z"/><path class="cls-1" d="M229,80.39h5.53v2.2a9,9,0,0,1,6.5-2.86,8.2,8.2,0,0,1,6.48,2.62q2,2.22,2,7.26v14.6H244V90.91c0-2.35-.32-4-1-4.87s-1.79-1.37-3.47-1.37a4.24,4.24,0,0,0-3.89,1.81q-1.12,1.78-1.12,6.24v11.49H229Z"/><path class="cls-1" d="M278.18,93.6H261.11A7.19,7.19,0,0,0,263,98.27a5.79,5.79,0,0,0,4.32,1.71,5.63,5.63,0,0,0,3.4-1,13.81,13.81,0,0,0,3-3.62L278.4,98a18.28,18.28,0,0,1-2.28,3.15,11.9,11.9,0,0,1-2.56,2.15,10.42,10.42,0,0,1-3,1.23,14,14,0,0,1-3.45.4,11.18,11.18,0,0,1-8.56-3.43,12.85,12.85,0,0,1-3.23-9.14,13.18,13.18,0,0,1,3.13-9.15,11.93,11.93,0,0,1,16.68-.1q3,3.33,3,9.22Zm-5.65-4.5q-1.15-4.41-5.55-4.41a5.85,5.85,0,0,0-1.89.31,5.43,5.43,0,0,0-2.83,2.26,6.24,6.24,0,0,0-.79,1.84Z"/><path class="cls-1" d="M302.73,81.42v7.31a13.39,13.39,0,0,0-3.37-3.15,6.56,6.56,0,0,0-3.45-.89,6.8,6.8,0,0,0-5.16,2.18,7.63,7.63,0,0,0-2.05,5.46,7.82,7.82,0,0,0,2,5.5,6.68,6.68,0,0,0,5.11,2.15,6.93,6.93,0,0,0,3.5-.86,14,14,0,0,0,3.44-3.22v7.26a14.39,14.39,0,0,1-6.7,1.74,12.82,12.82,0,0,1-9.24-3.57,11.93,11.93,0,0,1-3.72-8.93,12.07,12.07,0,0,1,3.77-9,12.72,12.72,0,0,1,9.24-3.67A13.73,13.73,0,0,1,302.73,81.42Z"/><path class="cls-1" d="M313.74,85.53v18.68h-5.5V85.53h-2.35V80.39h2.35V71.66h5.5v8.73H318v5.14Z"/><path class="cls-1" d="M343.9,93.6H326.82a7.29,7.29,0,0,0,1.91,4.67,5.83,5.83,0,0,0,4.33,1.71,5.65,5.65,0,0,0,3.4-1,14,14,0,0,0,3-3.62L344.12,98a18.28,18.28,0,0,1-2.28,3.15,11.94,11.94,0,0,1-2.57,2.15,10.3,10.3,0,0,1-3,1.23,13.93,13.93,0,0,1-3.44.4,11.18,11.18,0,0,1-8.56-3.43,12.81,12.81,0,0,1-3.23-9.14,13.18,13.18,0,0,1,3.13-9.15,11.93,11.93,0,0,1,16.68-.1q3,3.33,3,9.22Zm-5.65-4.5q-1.15-4.41-5.56-4.41a5.79,5.79,0,0,0-1.88.31,5.31,5.31,0,0,0-1.6.88A5.67,5.67,0,0,0,328,87.26a6.5,6.5,0,0,0-.78,1.84Z"/><path class="cls-1" d="M367.47,62.9H373v41.31h-5.53v-2.49a10.26,10.26,0,0,1-7.36,3.18,10.48,10.48,0,0,1-8.12-3.57,13.27,13.27,0,0,1-3.2-9.1,12.84,12.84,0,0,1,3.2-8.91,10.25,10.25,0,0,1,8-3.59,10.15,10.15,0,0,1,7.48,3.42ZM354.41,92.23a8.24,8.24,0,0,0,1.84,5.57A6,6,0,0,0,361,100a6.31,6.31,0,0,0,4.94-2.1,9.07,9.07,0,0,0,0-11.06A6.21,6.21,0,0,0,361,84.69a6.06,6.06,0,0,0-4.74,2.16A7.91,7.91,0,0,0,354.41,92.23Z"/></svg>