<?xml version="1.0" standalone="no"?>
<!DOCTYPE svg PUBLIC "-//W3C//DTD SVG 20010904//EN"
 "http://www.w3.org/TR/2001/REC-SVG-20010904/DTD/svg10.dtd">
<svg version="1.0" xmlns="http://www.w3.org/2000/svg"
 width="1847.000000pt" height="1847.000000pt" viewBox="0 0 1847.000000 1847.000000"
 preserveAspectRatio="xMidYMid meet">
<metadata>
Created by potrace 1.11, written by Peter Selinger 2001-2013
</metadata>
<g transform="translate(0.000000,1847.000000) scale(0.100000,-0.100000)"
fill="#000000" stroke="none">
<path d="M8977 17764 c-1 -1 -76 -5 -167 -8 -91 -4 -181 -9 -200 -11 -19 -2
-75 -6 -125 -10 -49 -3 -103 -8 -120 -10 -16 -2 -52 -6 -80 -9 -131 -14 -162
-18 -185 -21 -14 -2 -49 -7 -79 -10 -30 -4 -63 -9 -75 -11 -11 -2 -38 -6 -61
-9 -22 -3 -65 -10 -95 -15 -30 -5 -71 -12 -90 -15 -637 -102 -1529 -376 -2120
-652 -41 -20 -104 -49 -140 -65 -245 -112 -637 -326 -896 -489 -589 -370
-1093 -771 -1578 -1254 -121 -120 -195 -198 -371 -391 -39 -42 -234 -274 -298
-354 -43 -53 -189 -244 -222 -290 -22 -30 -43 -59 -48 -65 -56 -68 -379 -563
-435 -665 -7 -14 -22 -38 -32 -55 -11 -16 -23 -36 -27 -44 -4 -8 -32 -60 -63
-115 -97 -171 -281 -539 -335 -669 -9 -21 -28 -66 -44 -100 -37 -82 -164 -399
-203 -507 -84 -238 -233 -719 -252 -817 -2 -10 -16 -67 -31 -128 -15 -60 -29
-121 -31 -135 -3 -13 -12 -56 -20 -95 -9 -38 -18 -83 -20 -100 -3 -16 -9 -46
-14 -65 -5 -19 -12 -55 -15 -80 -3 -25 -10 -61 -15 -80 -5 -19 -11 -57 -15
-85 -7 -60 -15 -110 -22 -150 -6 -37 -8 -52 -18 -135 -4 -36 -9 -72 -10 -80
-3 -18 -16 -129 -20 -179 -2 -20 -6 -65 -9 -101 -25 -269 -31 -406 -30 -815 0
-376 5 -502 28 -760 10 -111 16 -170 20 -200 2 -16 7 -59 11 -95 8 -80 75
-522 80 -530 2 -4 7 -26 10 -51 5 -38 76 -370 91 -424 3 -11 7 -30 10 -43 10
-49 77 -295 115 -422 109 -366 273 -804 420 -1118 21 -46 39 -86 39 -88 0 -10
203 -409 259 -508 33 -60 61 -111 61 -112 0 -3 28 -51 119 -204 5 -8 45 -71
88 -139 43 -68 83 -131 88 -140 21 -34 50 -76 55 -81 3 -3 10 -13 15 -22 16
-27 220 -315 257 -363 168 -217 382 -481 418 -515 3 -3 41 -45 85 -95 218
-246 502 -524 785 -769 236 -204 474 -393 645 -511 39 -27 72 -51 75 -54 11
-13 221 -151 229 -151 5 0 11 -4 13 -8 3 -9 287 -188 378 -239 30 -17 105 -59
165 -93 271 -153 667 -343 790 -379 224 -65 493 -61 710 11 364 121 641 396
764 761 16 48 28 87 25 87 -3 0 0 8 5 18 5 10 13 45 16 77 4 33 9 69 11 80 6
32 5 205 -1 255 -19 139 -72 310 -133 424 -117 220 -312 408 -532 513 -244
116 -475 235 -562 290 -21 12 -40 23 -44 23 -3 0 -25 13 -48 28 -22 15 -48 31
-56 34 -13 6 -51 30 -271 175 -78 51 -79 52 -259 187 -281 211 -484 390 -749
660 -64 65 -121 123 -126 130 -324 360 -591 719 -798 1071 -6 11 -21 36 -33
55 -12 19 -37 62 -55 95 -18 33 -40 75 -50 92 -31 54 -125 242 -169 337 -225
483 -391 998 -491 1521 -5 28 -11 61 -14 75 -3 14 -8 45 -11 70 -3 25 -7 52
-9 60 -2 8 -7 35 -10 60 -3 25 -8 56 -10 70 -2 14 -7 50 -10 80 -3 30 -8 66
-10 80 -2 14 -7 59 -10 100 -4 41 -8 93 -10 115 -22 234 -22 768 0 995 2 19 6
71 10 115 4 44 8 91 10 105 1 14 6 50 10 80 3 30 10 82 15 115 5 33 12 78 15
100 3 23 7 52 10 65 6 30 22 122 30 170 3 19 11 55 16 80 6 25 13 54 15 65 4
19 9 45 18 83 37 157 147 544 175 614 6 13 31 82 56 153 26 72 53 144 61 160
7 17 22 53 32 80 11 28 36 85 56 128 20 43 36 81 36 83 0 12 183 371 244 479
89 158 211 352 309 495 80 115 241 333 265 358 7 8 25 30 40 50 15 21 29 39
32 42 3 3 30 34 60 70 66 77 55 65 160 181 167 184 437 444 590 569 30 25 60
50 65 56 6 6 51 42 100 80 50 38 101 79 115 91 14 13 28 23 32 23 3 0 13 6 20
13 7 7 36 28 63 47 28 19 52 38 55 41 10 13 330 220 455 294 217 130 346 182
528 213 56 9 309 8 372 -2 232 -37 473 -159 640 -323 308 -304 424 -705 331
-1143 -38 -178 -165 -405 -307 -550 -95 -98 -168 -150 -369 -262 -33 -18 -276
-181 -346 -232 -37 -26 -164 -126 -180 -141 -6 -5 -40 -35 -75 -65 -113 -96
-366 -359 -467 -484 -53 -66 -99 -123 -102 -126 -3 -3 -21 -27 -39 -55 -19
-27 -38 -52 -41 -55 -3 -3 -35 -50 -71 -105 -287 -437 -479 -897 -587 -1405
-11 -52 -23 -115 -27 -140 -3 -25 -8 -52 -10 -60 -5 -18 -12 -68 -20 -140 -3
-30 -8 -68 -10 -85 -28 -211 -23 -703 10 -950 3 -22 8 -62 11 -90 3 -27 7 -56
10 -64 3 -8 7 -30 10 -50 31 -213 141 -592 222 -765 201 -429 644 -709 1122
-709 79 0 166 7 221 18 13 3 36 7 51 10 63 12 199 60 284 101 309 148 548 427
647 754 42 137 55 233 52 385 -3 139 -18 220 -71 385 -39 120 -70 263 -79 365
-7 76 -8 265 -1 305 3 14 7 45 10 70 48 373 266 758 565 998 25 20 48 39 51
42 22 23 184 120 265 160 272 131 585 181 888 144 222 -27 400 -86 613 -205
126 -70 345 -260 430 -372 21 -29 41 -54 44 -57 23 -22 107 -164 148 -250 112
-235 160 -451 156 -703 -1 -118 -5 -162 -19 -247 -13 -74 -33 -150 -60 -235
-62 -191 -69 -230 -69 -420 -1 -201 7 -256 56 -400 100 -298 332 -565 610
-706 196 -99 377 -143 584 -141 176 1 297 25 458 89 286 114 524 334 655 607
89 184 204 579 237 816 2 19 6 44 9 55 2 11 7 49 11 85 3 36 8 67 10 70 24 44
24 908 -1 950 -2 3 -6 34 -10 70 -7 64 -9 79 -20 130 -3 14 -7 41 -9 60 -6 48
-31 162 -62 283 -246 978 -854 1834 -1706 2400 -113 75 -134 88 -263 159 -309
172 -531 488 -595 850 -19 104 -16 315 4 413 77 364 297 664 609 830 191 102
332 138 547 139 290 2 430 -40 730 -219 145 -86 514 -329 540 -355 3 -3 52
-41 110 -84 58 -44 107 -82 110 -85 3 -4 26 -23 52 -44 26 -21 53 -43 60 -50
8 -7 43 -36 78 -66 96 -81 146 -128 345 -326 243 -242 416 -441 609 -700 53
-71 100 -134 104 -140 54 -68 280 -430 372 -595 53 -94 220 -425 220 -434 0
-3 13 -33 29 -68 43 -92 68 -151 112 -268 22 -58 45 -114 49 -125 22 -49 96
-275 145 -445 58 -202 122 -470 150 -635 25 -147 43 -266 50 -330 3 -27 8 -63
10 -80 2 -16 7 -59 10 -95 4 -36 8 -78 10 -95 25 -189 25 -913 0 -1105 -2 -19
-7 -64 -10 -100 -7 -82 -13 -136 -26 -230 -6 -41 -13 -91 -15 -110 -6 -40 -9
-56 -24 -140 -5 -33 -12 -70 -14 -82 -2 -13 -7 -34 -10 -48 -3 -14 -8 -36 -10
-50 -9 -57 -59 -268 -87 -368 -102 -367 -204 -655 -346 -972 -53 -118 -185
-386 -223 -450 -102 -177 -179 -308 -194 -333 -88 -145 -318 -469 -436 -613
-14 -17 -34 -42 -44 -55 -189 -236 -493 -549 -750 -774 -38 -33 -80 -71 -95
-84 -14 -13 -42 -35 -61 -50 -19 -14 -37 -28 -40 -31 -15 -15 -157 -125 -240
-185 -52 -38 -96 -72 -98 -77 -2 -4 -7 -8 -11 -8 -4 0 -63 -37 -132 -83 -266
-176 -460 -288 -719 -414 -353 -172 -390 -195 -524 -327 -117 -115 -164 -177
-227 -301 -98 -191 -133 -341 -133 -565 -1 -519 345 -982 846 -1134 270 -82
595 -63 833 49 28 12 91 42 140 65 121 57 179 86 315 157 108 57 133 71 227
124 21 12 65 37 98 56 33 19 67 38 75 43 8 6 71 44 140 86 113 69 340 217 365
236 6 5 69 50 140 101 540 383 1077 871 1537 1398 83 94 302 363 345 423 21
28 40 53 43 56 3 3 47 61 97 130 197 272 411 606 562 880 29 52 57 102 62 110
5 8 60 116 122 240 159 315 285 603 394 900 104 283 243 736 288 940 2 8 15
62 29 120 14 58 27 119 30 135 5 25 19 92 40 185 2 8 7 38 11 65 5 28 9 52 10
55 2 7 16 89 20 120 2 14 7 40 10 58 10 62 14 87 20 132 3 25 8 56 10 70 2 14
7 50 11 80 3 30 7 66 9 80 2 14 6 54 10 90 3 36 8 81 10 100 8 65 18 212 31
450 13 248 8 723 -11 985 -11 158 -17 228 -20 248 -2 12 -6 57 -10 100 -4 43
-8 88 -10 100 -4 22 -10 73 -20 165 -4 26 -10 70 -15 97 -5 28 -12 68 -14 90
-3 22 -10 67 -16 100 -6 33 -13 76 -16 95 -2 19 -7 42 -9 50 -3 8 -7 33 -10
55 -4 22 -10 56 -15 75 -5 19 -12 51 -15 70 -3 19 -11 53 -17 75 -5 22 -12 51
-15 65 -8 46 -63 275 -72 300 -5 14 -19 63 -31 110 -92 346 -294 910 -445
1235 -12 28 -33 73 -45 100 -89 201 -325 645 -449 846 -9 15 -32 53 -51 85
-19 33 -38 64 -42 69 -5 6 -61 91 -126 190 -154 234 -465 654 -553 745 -8 8
-46 53 -85 100 -274 327 -659 712 -994 995 -143 121 -139 118 -230 190 -41 33
-77 62 -80 65 -3 3 -30 23 -60 45 -30 22 -57 42 -60 45 -37 39 -501 355 -710
482 -489 298 -1002 547 -1529 742 -140 52 -381 135 -406 140 -10 2 -123 37
-205 63 -52 17 -423 113 -460 120 -14 2 -41 8 -60 13 -29 7 -176 38 -265 56
-35 7 -220 39 -289 50 -21 3 -47 7 -58 9 -11 3 -46 7 -77 11 -31 3 -59 8 -62
10 -3 2 -36 6 -73 9 -37 4 -76 8 -87 10 -11 2 -50 7 -87 10 -37 3 -80 8 -97
10 -28 4 -64 7 -245 20 -178 13 -310 17 -583 19 -164 1 -299 1 -300 0z"/>
</g>
</svg>
